# xmcd
#
# Track frame offsets:
#	150
#	16005
#	31560
#	44302
#	55987
#	69732
#	82850
#	97715
#	110205
#	125337
#	140847
#	154772
#	170140
#	182182
#
# Disc length: 2600 seconds
#
# Revision: 0
# Processed by: cddbd v1.5.2PL0 Copyright (c) Steve Scherf et al.
# Submitted via: EZCDAudioConverter 2.2.2.1
#
DISCID=b50a260e
DTITLE=The Barracudas - Mean Time
DYEAR=1983
DGENRE=Pop-Rock
TTITLE0=Grammar of Misery
TTITLE1=Bad News
TTITLE2=I Ain't No Miracle Worker
TTITLE3=Be My Friend Again
TTITLE4=Shades of Today
TTITLE5=Dead Skin
TTITLE6=Middle Class Blues
TTITLE7=Yo've Come a Long Way
TTITLE8=Ballad of a Liar
TTITLE9=When I'm Gone
TTITLE10=Eleventh Hour
TTITLE11=Hear Me Calling
TTITLE12=Be My Friend Again
TTITLE13=Stolen Heart
EXTD=
EXTT0=
EXTT1=
EXTT2=
EXTT3=
EXTT4=
EXTT5=
EXTT6=
EXTT7=
EXTT8=
EXTT9=
EXTT10=
EXTT11=
EXTT12=
EXTT13=
PLAYORDER=
